<?xml version="1.0" encoding="UTF-8"?>
<svg id="Capa_1" data-name="Capa 1" xmlns="http://www.w3.org/2000/svg" viewBox="0 0 1080 1080">
  <defs>
    <style>
      .cls-1 {
        fill: #0058ff;
      }

      .cls-2 {
        fill: #fff;
      }
    </style>
  </defs>
  <rect class="cls-1" x="-27.43" y="-15.32" width="1138.51" height="1110.65"/>
  <g>
    <g>
      <path class="cls-2" d="M289.43,480.11c5.45-5.45,12.12-8.17,20.01-8.17s14.56,2.72,20.01,8.17c5.45,5.45,8.17,12.12,8.17,20.01s-2.72,14.56-8.17,20.01c-5.45,5.45-12.12,8.17-20.01,8.17s-14.56-2.72-20.01-8.17c-5.45-5.45-8.17-12.12-8.17-20.01s2.72-14.56,8.17-20.01ZM233.08,480.11c5.45-5.45,12.12-8.17,20.01-8.17s14.56,2.72,20.01,8.17c5.45,5.45,8.17,12.12,8.17,20.01s-2.72,14.56-8.17,20.01c-5.45,5.45-12.12,8.17-20.01,8.17s-14.56-2.72-20.01-8.17c-5.45-5.45-8.17-12.12-8.17-20.01s2.72-14.56,8.17-20.01ZM176.72,480.11c5.45-5.45,12.12-8.17,20.01-8.17s14.56,2.72,20.01,8.17c5.45,5.45,8.17,12.12,8.17,20.01s-2.72,14.56-8.17,20.01c-5.45,5.45-12.12,8.17-20.01,8.17s-14.56-2.72-20.01-8.17c-5.45-5.45-8.17-12.12-8.17-20.01s2.72-14.56,8.17-20.01ZM120.37,480.11c5.45-5.45,12.12-8.17,20.01-8.17s14.56,2.72,20.01,8.17,8.17,12.12,8.17,20.01-2.72,14.56-8.17,20.01c-5.45,5.45-12.12,8.17-20.01,8.17s-14.56-2.72-20.01-8.17c-5.45-5.45-8.17-12.12-8.17-20.01s2.72-14.56,8.17-20.01ZM64.01,480.11c5.45-5.45,12.12-8.17,20.01-8.17s14.56,2.72,20.01,8.17c5.45,5.45,8.17,12.12,8.17,20.01s-2.72,14.56-8.17,20.01c-5.45,5.45-12.12,8.17-20.01,8.17s-14.56-2.72-20.01-8.17c-5.45-5.45-8.17-12.12-8.17-20.01s2.72-14.56,8.17-20.01ZM64.01,536.47c5.45-5.45,12.12-8.17,20.01-8.17s14.56,2.72,20.01,8.17,8.17,12.12,8.17,20.01-2.72,14.56-8.17,20.01-12.12,8.17-20.01,8.17-14.56-2.72-20.01-8.17-8.17-12.12-8.17-20.01,2.72-14.56,8.17-20.01Z"/>
      <path class="cls-2" d="M233.08,536.47c5.45-5.45,12.12-8.17,20.01-8.17s14.56,2.72,20.01,8.17,8.17,12.12,8.17,20.01-2.72,14.56-8.17,20.01-12.12,8.17-20.01,8.17-14.56-2.72-20.01-8.17c-5.45-5.45-8.17-12.12-8.17-20.01s2.72-14.56,8.17-20.01ZM64.01,536.47c5.45-5.45,12.12-8.17,20.01-8.17s14.56,2.72,20.01,8.17,8.17,12.12,8.17,20.01-2.72,14.56-8.17,20.01-12.12,8.17-20.01,8.17-14.56-2.72-20.01-8.17-8.17-12.12-8.17-20.01,2.72-14.56,8.17-20.01Z"/>
    </g>
    <g>
      <path class="cls-2" d="M420.04,472.14v95.89h32.86v15.85h-49.72v-111.74h16.86Z"/>
      <path class="cls-2" d="M473.58,527.5c0-15.73,5.76-29.24,17.3-40.53,11.48-11.29,25.28-16.93,41.39-16.93s29.57,5.69,40.96,17.08c11.43,11.39,17.15,25.06,17.15,41.03s-5.74,29.7-17.22,40.89c-11.53,11.24-25.45,16.86-41.76,16.86-14.43,0-27.38-4.99-38.86-14.98-12.64-11.05-18.96-25.52-18.96-43.42ZM490.59,527.72c0,12.35,4.15,22.51,12.45,30.47,8.25,7.96,17.78,11.94,28.59,11.94,11.72,0,21.61-4.05,29.67-12.16,8.06-8.2,12.08-18.19,12.08-29.96s-3.98-21.9-11.94-29.96c-7.91-8.11-17.71-12.16-29.38-12.16s-21.45,4.05-29.45,12.16c-8.01,8.01-12.01,17.9-12.01,29.67Z"/>
      <path class="cls-2" d="M643.27,472.14v95.89h32.86v15.85h-49.72v-111.74h16.86Z"/>
      <path class="cls-2" d="M723.8,472.14v111.74h-16.86v-111.74h16.86Z"/>
      <path class="cls-2" d="M822.93,525.7h46.17v3.69c0,8.39-.99,15.83-2.97,22.29-1.93,5.98-5.19,11.58-9.77,16.79-10.37,11.68-23.57,17.51-39.58,17.51s-29.02-5.64-40.16-16.93c-11.14-11.34-16.72-24.94-16.72-40.81s5.67-29.96,17.01-41.25c11.34-11.34,25.13-17.01,41.39-17.01,8.73,0,16.89,1.79,24.46,5.36,7.24,3.57,14.35,9.36,21.35,17.37l-12.01,11.51c-9.17-12.21-20.34-18.31-33.51-18.31-11.82,0-21.73,4.08-29.74,12.23-8.01,8.01-12.01,18.04-12.01,30.1s4.46,22.7,13.39,30.76c8.35,7.48,17.39,11.22,27.14,11.22,8.3,0,15.75-2.8,22.36-8.39,6.61-5.64,10.3-12.4,11.07-20.26h-27.86v-15.85Z"/>
      <path class="cls-2" d="M899.55,527.5c0-15.73,5.76-29.24,17.3-40.53,11.48-11.29,25.28-16.93,41.39-16.93s29.57,5.69,40.96,17.08c11.43,11.39,17.15,25.06,17.15,41.03s-5.74,29.7-17.22,40.89c-11.53,11.24-25.45,16.86-41.76,16.86-14.43,0-27.38-4.99-38.86-14.98-12.64-11.05-18.96-25.52-18.96-43.42ZM916.55,527.72c0,12.35,4.15,22.51,12.45,30.47,8.25,7.96,17.78,11.94,28.59,11.94,11.72,0,21.61-4.05,29.67-12.16,8.06-8.2,12.08-18.19,12.08-29.96s-3.98-21.9-11.94-29.96c-7.91-8.11-17.71-12.16-29.38-12.16s-21.45,4.05-29.45,12.16c-8.01,8.01-12.01,17.9-12.01,29.67Z"/>
    </g>
  </g>
</svg>